<svg width="25" height="78" viewBox="0 0 25 78" fill="none" xmlns="http://www.w3.org/2000/svg">
<g clip-path="url(#clip0_3954_76143)">
<path d="M0.678327 13.7821C0.893364 16.0125 1.34299 18.2229 1.71441 20.4533C3.25876 29.596 4.82267 38.7388 6.38657 47.8815C6.95348 51.197 9.45572 53.327 12.6813 53.327C15.9068 53.327 18.4091 51.2171 18.976 47.8815C20.8722 36.8499 22.7684 25.7983 24.6256 14.7466C25.5835 8.99974 22.182 3.1524 16.8061 1.24348C15.9068 0.921973 14.9489 0.741127 14.0106 0.5C13.1309 0.5 12.2512 0.5 11.3715 0.5C11.176 0.540188 11.0001 0.620564 10.8046 0.640658C4.70537 1.5047 0.0723158 7.43241 0.678327 13.7821Z" fill="#00AC69"/>
<path d="M12.7388 58.5509C7.65611 58.5308 3.45312 62.7706 3.45312 67.9347C3.45312 73.4003 7.44107 77.5195 12.7192 77.5195C17.9779 77.4994 21.9463 73.4003 21.9463 67.9548C21.9463 62.8108 17.7824 58.5709 12.7388 58.5509Z" fill="#00AC69"/>
</g>
<defs>
<clipPath id="clip0_3954_76143">
<rect width="24.1818" height="77" fill="white" transform="translate(0.621094 0.5)"/>
</clipPath>
</defs>
</svg>
