<svg width="26" height="26" viewBox="0 0 26 26" fill="none" xmlns="http://www.w3.org/2000/svg">
<path d="M1.89453 1.75H4.39453L4.89453 4.25M6.89453 14.25H19.3945L24.3945 4.25H4.89453M6.89453 14.25L4.89453 4.25M6.89453 14.25L4.02842 17.1161C3.24096 17.9036 3.79867 19.25 4.9123 19.25H19.3945M19.3945 19.25C18.0138 19.25 16.8945 20.3693 16.8945 21.75C16.8945 23.1307 18.0138 24.25 19.3945 24.25C20.7752 24.25 21.8945 23.1307 21.8945 21.75C21.8945 20.3693 20.7752 19.25 19.3945 19.25ZM9.39453 21.75C9.39453 23.1307 8.27524 24.25 6.89453 24.25C5.51382 24.25 4.39453 23.1307 4.39453 21.75C4.39453 20.3693 5.51382 19.25 6.89453 19.25C8.27524 19.25 9.39453 20.3693 9.39453 21.75Z" stroke="white" stroke-width="2" stroke-linecap="round" stroke-linejoin="round"/>
</svg>
