<svg width="31" height="30" viewBox="0 0 31 30" fill="none" xmlns="http://www.w3.org/2000/svg">
<path d="M17.993 11.9054C18.355 12.3225 18.9866 12.3673 19.4037 12.0053C19.8208 11.6433 19.8656 11.0118 19.5036 10.5946L17.993 11.9054ZM13.007 18.0946C12.6451 17.6775 12.0135 17.6327 11.5963 17.9947C11.1792 18.3567 11.1345 18.9882 11.4964 19.4054L13.007 18.0946ZM16.5 8.75C16.5 8.19772 16.0523 7.75 15.5 7.75C14.9477 7.75 14.5 8.19772 14.5 8.75H16.5ZM14.5 21.25C14.5 21.8023 14.9477 22.25 15.5 22.25C16.0523 22.25 16.5 21.8023 16.5 21.25L14.5 21.25ZM25.75 15C25.75 20.6609 21.1609 25.25 15.5 25.25V27.25C22.2655 27.25 27.75 21.7655 27.75 15H25.75ZM15.5 25.25C9.83908 25.25 5.25 20.6609 5.25 15H3.25C3.25 21.7655 8.73451 27.25 15.5 27.25V25.25ZM5.25 15C5.25 9.33908 9.83908 4.75 15.5 4.75V2.75C8.73451 2.75 3.25 8.23451 3.25 15H5.25ZM15.5 4.75C21.1609 4.75 25.75 9.33908 25.75 15H27.75C27.75 8.23451 22.2655 2.75 15.5 2.75V4.75ZM15.5 14C14.6344 14 13.8959 13.7643 13.403 13.4357C12.9032 13.1025 12.75 12.752 12.75 12.5H10.75C10.75 13.6287 11.4362 14.5282 12.2936 15.0998C13.158 15.6761 14.2946 16 15.5 16V14ZM12.75 12.5C12.75 12.248 12.9032 11.8975 13.403 11.5643C13.8959 11.2357 14.6344 11 15.5 11V9C14.2946 9 13.158 9.32392 12.2936 9.90018C11.4362 10.4718 10.75 11.3713 10.75 12.5H12.75ZM15.5 11C16.6814 11 17.583 11.4329 17.993 11.9054L19.5036 10.5946C18.6168 9.57264 17.0947 9 15.5 9V11ZM15.5 16C16.3656 16 17.1041 16.2357 17.597 16.5643C18.0968 16.8975 18.25 17.248 18.25 17.5H20.25C20.25 16.3713 19.5638 15.4718 18.7064 14.9002C17.842 14.3239 16.7054 14 15.5 14V16ZM14.5 8.75V10H16.5V8.75H14.5ZM14.5 20L14.5 21.25L16.5 21.25L16.5 20L14.5 20ZM15.5 19C14.3186 19 13.417 18.5671 13.007 18.0946L11.4964 19.4054C12.3832 20.4274 13.9054 21 15.5 21L15.5 19ZM18.25 17.5C18.25 17.752 18.0968 18.1025 17.597 18.4357C17.1041 18.7643 16.3657 19 15.5 19V21C16.7054 21 17.842 20.6761 18.7064 20.0998C19.5638 19.5282 20.25 18.6287 20.25 17.5H18.25ZM14.5 10L14.5 20L16.5 20L16.5 10L14.5 10Z" fill="#00AC69"/>
</svg>
