<svg width="22" height="25" viewBox="0 0 22 25" fill="none" xmlns="http://www.w3.org/2000/svg">
<path fill-rule="evenodd" clip-rule="evenodd" d="M9.50391 0.642578C8.93575 0.642578 8.41636 0.963582 8.16227 1.47176L7.07686 3.64258H2.00391C1.17548 3.64258 0.503906 4.31415 0.503906 5.14258C0.503906 5.97101 1.17548 6.64258 2.00391 6.64258L2.00391 21.6426C2.00391 23.2994 3.34705 24.6426 5.00391 24.6426H17.0039C18.6608 24.6426 20.0039 23.2994 20.0039 21.6426V6.64258C20.8323 6.64258 21.5039 5.97101 21.5039 5.14258C21.5039 4.31415 20.8323 3.64258 20.0039 3.64258H14.931L13.8455 1.47176C13.5915 0.963582 13.0721 0.642578 12.5039 0.642578H9.50391ZM6.50391 9.64258C6.50391 8.81415 7.17548 8.14258 8.00391 8.14258C8.83233 8.14258 9.50391 8.81415 9.50391 9.64258V18.6426C9.50391 19.471 8.83233 20.1426 8.00391 20.1426C7.17548 20.1426 6.50391 19.471 6.50391 18.6426V9.64258ZM14.0039 8.14258C13.1755 8.14258 12.5039 8.81415 12.5039 9.64258V18.6426C12.5039 19.471 13.1755 20.1426 14.0039 20.1426C14.8323 20.1426 15.5039 19.471 15.5039 18.6426V9.64258C15.5039 8.81415 14.8323 8.14258 14.0039 8.14258Z" fill="#00AC69"/>
</svg>
