<svg width="35" height="30" viewBox="0 0 35 30" fill="none" xmlns="http://www.w3.org/2000/svg">
<g clip-path="url(#clip0_3744_75282)">
<path d="M29.9271 20.9505C29.7332 20.9458 29.647 20.8873 29.573 20.71C28.9435 19.2102 28.3037 17.7152 27.6555 16.1937C27.9909 16.3022 28.3009 16.4041 28.6297 16.4144C29.0569 16.4276 29.2967 16.2145 29.2986 15.7891C29.3042 14.328 29.3032 12.8659 29.2986 11.4049C29.2976 10.9719 29.0691 10.7455 28.6428 10.7672C27.7932 10.8097 27.0963 11.1681 26.5577 11.8359C26.3638 12.0764 26.2308 12.3547 26.0949 12.665C25.4392 11.8765 24.6364 11.7152 23.7016 11.8746C23.1629 11.9661 22.5981 11.9548 22.1241 11.5888C21.5592 11.153 21.2098 10.5418 20.7715 9.94753C21.6248 9.84755 22.1663 9.41932 22.4314 8.66472C22.5147 8.42702 22.6187 8.23837 22.8154 8.06859C23.2716 7.67336 23.5039 7.01026 22.9887 6.4179C22.7573 6.15191 22.6833 5.7897 22.6337 5.43598C22.6075 5.2511 22.599 5.10962 22.8341 5.0351C23.0374 4.97096 23.132 4.77193 23.1273 4.55593C23.1227 4.32106 23.1058 4.08525 23.0721 3.85321C22.7817 1.8573 21.2698 0.375456 19.1996 0.0490917C17.4133 -0.231996 15.4808 0.822555 14.6396 2.53832C13.76 4.33238 14.1169 6.43299 15.5323 7.79693C15.6185 7.87994 15.7047 7.96483 15.818 8.07613C14.781 8.35722 13.9895 8.93449 13.3488 9.73153C12.7127 10.5229 12.2987 11.436 11.9549 12.4113C11.5952 12.1029 11.2149 11.9001 10.7643 11.8991C8.73159 11.8944 6.69887 11.8897 4.66616 11.9019C4.09662 11.9057 3.63481 12.1717 3.29571 12.6367C3.08026 12.932 3.10087 13.2517 3.34161 13.4583C3.59359 13.6743 3.91864 13.6356 4.16781 13.3385C4.3383 13.1348 4.53782 13.0244 4.80198 13.0282C5.04741 13.032 5.29283 13.0386 5.53732 13.0254C5.70687 13.0159 5.75652 13.0725 5.75277 13.2423C5.74247 13.7252 5.74247 14.2091 5.75183 14.6921C5.75839 15.0571 5.96073 15.2835 6.30638 15.2873C7.24124 15.2976 8.17517 15.2976 9.11003 15.2882C9.45756 15.2844 9.65896 15.0609 9.67207 14.6996C9.68144 14.4525 9.66645 14.2044 9.67582 13.9573C9.688 13.6545 9.54093 13.2291 9.73202 13.0829C9.93436 12.9282 10.3325 13.0244 10.6453 13.0301C11.0809 13.0376 11.3507 13.298 11.3535 13.7328C11.361 15.1467 11.361 16.5616 11.3535 17.9755C11.3516 18.4113 11.0819 18.6801 10.6482 18.6811C8.68569 18.6867 6.72323 18.6848 4.76077 18.683C4.40293 18.683 4.17718 18.5037 4.0629 18.1179C4.43853 18.1179 4.78512 18.1236 5.13078 18.1161C5.51016 18.1085 5.75371 17.8755 5.74809 17.5416C5.74247 17.2209 5.50641 17.0011 5.1467 16.987C5.01837 16.9823 4.89004 16.9861 4.76077 16.9861C4.06852 16.9861 4.08913 16.9851 4.05915 16.305C4.04323 15.9504 4.11817 15.8136 4.49848 15.8447C4.93313 15.8806 5.1926 15.6353 5.18698 15.2807C5.18136 14.9269 4.92938 14.7251 4.48256 14.7241C3.68821 14.7223 2.89385 14.7232 2.0995 14.7232C1.52809 14.7232 1.26393 14.9043 1.26674 15.292C1.26955 15.6787 1.53184 15.8542 2.107 15.8542C2.96973 15.8542 2.96223 15.8542 2.95193 16.7408C2.94912 16.9445 2.89104 16.9936 2.69714 16.9898C2.06672 16.9776 1.43536 16.9823 0.804933 16.9861C0.391832 16.9889 0.143597 17.2058 0.144534 17.5511C0.145471 17.8963 0.393706 18.1123 0.806806 18.1151C1.40257 18.1189 1.99833 18.1264 2.5941 18.1113C2.83297 18.1047 2.94631 18.1462 3.00532 18.4198C3.16644 19.1725 3.66291 19.6224 4.40293 19.7762C4.65117 19.8281 4.91439 19.8111 5.17012 19.812C5.93356 19.8158 6.69794 19.8139 7.51102 19.8139C7.27309 20.0931 7.07169 20.3195 6.93025 20.5893C6.13402 22.106 5.75183 23.7265 5.75371 25.4385C5.75371 25.8092 5.97478 26.0261 6.3476 26.0337C6.81503 26.0431 7.28246 26.0441 7.74895 26.0327C7.95223 26.028 8.03841 26.0639 8.08431 26.3016C8.49085 28.4361 10.3568 29.9774 12.4898 29.9651C14.6293 29.9519 16.4578 28.438 16.8728 26.3157C16.9158 26.0969 16.9758 26.0318 17.1959 26.0318C19.8478 26.0393 22.4997 26.0384 25.1516 26.0337C25.3437 26.0337 25.4205 26.0667 25.4617 26.2884C25.9226 28.8163 28.3965 30.4651 30.8357 29.8859C33.0642 29.3577 34.5471 27.3137 34.3373 25.0612C34.1199 22.7493 32.2624 21.0128 29.9271 20.9505ZM7.71148 14.1544C6.86093 14.1544 6.8703 14.1544 6.86561 13.3055C6.86374 13.0725 6.9265 13.0074 7.15413 13.0178C7.55037 13.0367 7.94754 13.031 8.34472 13.0197C8.5152 13.014 8.58171 13.0687 8.55455 13.2366C8.55267 13.248 8.55361 13.2602 8.55455 13.2715C8.57516 14.1544 8.57516 14.1544 7.71148 14.1544ZM28.1792 12.0132C28.1792 12.5509 28.1792 13.0716 28.1792 13.5913C28.1792 14.1054 28.1792 14.6194 28.1792 15.1392C27.5693 14.9892 27.1029 14.3808 27.0616 13.7092C27.0148 12.9508 27.4316 12.2943 28.1792 12.0132ZM23.0018 14.244C23.0824 13.4555 23.6997 12.9093 24.465 12.9499C24.9793 12.9772 25.5357 13.5724 25.5329 14.0856C25.5319 14.2214 25.4214 14.2186 25.3474 14.2563C24.8378 14.5138 24.0322 14.7062 23.429 14.7194C22.985 14.7289 22.9559 14.6968 23.0018 14.244ZM21.9199 7.31399C21.6042 7.47717 21.46 7.72053 21.4225 8.09217C21.3747 8.56945 21.0553 8.79206 20.5776 8.80243C20.1354 8.81186 19.7382 8.62887 19.3223 8.52795C19.1762 8.4921 19.209 8.37137 19.208 8.27044C19.2062 7.92993 19.2071 7.58847 19.2071 7.24796H19.208C19.208 6.91877 19.1987 6.58957 19.2099 6.26038C19.2315 5.62369 19.7176 5.13508 20.3471 5.10396C20.3818 5.10207 20.4174 5.10301 20.452 5.10301C20.7546 5.10301 21.1077 5.0068 21.3466 5.13131C21.5986 5.26242 21.4796 5.67179 21.5649 5.95099C21.6717 6.3 21.7869 6.64522 21.9864 6.94989C22.0941 7.11307 22.0951 7.22343 21.9199 7.31399ZM15.2953 4.87852C15.1501 3.57967 15.8873 2.20158 17.0685 1.56395C18.9935 0.524489 21.3166 1.53471 21.8974 3.65136C21.9752 3.93339 21.9133 4.0013 21.6417 3.97489C21.4215 3.95414 21.1986 3.97017 20.926 3.97017C20.616 3.98715 20.2553 3.94565 19.8956 4.02771C18.8699 4.26258 18.1177 5.16055 18.0896 6.21888C18.0774 6.67824 18.0727 7.1376 18.0905 7.59696C18.0999 7.84692 18.0352 7.88937 17.7992 7.82523C16.4494 7.46491 15.4545 6.30377 15.2953 4.87852ZM12.4757 15.6259C12.62 13.7158 13.0846 11.9104 14.2967 10.3899C15.2634 9.1769 16.5468 8.82413 18.0315 9.20237C18.7425 9.38347 19.2727 9.83152 19.7101 10.4041C20.0661 10.87 20.3986 11.353 20.764 11.8114C21.1265 12.266 21.563 12.6377 22.1222 12.8273C22.2983 12.8867 22.2927 12.9527 22.2122 13.0961C21.9948 13.4819 21.8918 13.9092 21.9002 14.3468C21.9058 14.6393 21.7878 14.6128 21.5911 14.5525C20.3471 14.1723 19.371 13.4366 18.6694 12.3321C18.6188 12.2528 18.5786 12.167 18.5261 12.0906C18.3322 11.8104 18.0296 11.7359 17.7645 11.9001C17.5022 12.0623 17.4114 12.3839 17.58 12.6688C17.7533 12.9603 17.9519 13.2376 18.1542 13.5102C18.2441 13.6319 18.2938 13.7054 18.1701 13.8526C17.7271 14.378 17.4133 14.9798 17.2456 15.6504C17.2006 15.8287 17.1088 15.8579 16.9496 15.856C16.2377 15.8485 15.5257 15.8532 14.8138 15.8532C14.1141 15.8532 13.4134 15.8476 12.7137 15.857C12.5347 15.8579 12.4617 15.8202 12.4757 15.6259ZM10.784 28.3956C9.98775 27.9145 9.4688 27.2203 9.22338 26.3138C9.16905 26.1148 9.1653 25.9931 9.42103 26.0337C9.46693 26.0412 9.5147 26.0403 9.5606 26.0337C10.028 25.9686 10.3278 26.0676 10.5704 26.5779C10.947 27.3684 11.6889 27.7325 12.5619 27.6957C13.4771 27.6561 14.1553 27.1948 14.5206 26.3393C14.6274 26.0893 14.7454 26.0026 15.004 26.029C15.255 26.0544 15.5107 26.0346 15.7674 26.0346C15.5079 28.3173 12.7755 29.5982 10.784 28.3956ZM11.5437 26.0648C12.1685 26.0648 12.7717 26.0648 13.4143 26.0648C12.8748 26.76 12.0785 26.759 11.5437 26.0648ZM9.0838 24.9037C8.44214 24.9037 7.79954 24.8886 7.15787 24.9112C6.88716 24.9207 6.86187 24.8244 6.88716 24.5905C7.01362 23.4218 7.31244 22.306 7.852 21.2618C8.33722 20.3223 9.11378 19.8271 10.1601 19.8167C11.8875 19.8007 13.6157 19.8082 15.3431 19.8139C16.2704 19.8167 16.9533 20.5081 16.9636 21.442C16.9683 21.8655 16.9777 22.2909 16.9618 22.7135C16.9327 23.4803 17.0245 24.2132 17.5266 24.9046C14.663 24.9037 11.8734 24.9037 9.0838 24.9037ZM18.0783 22.3456C18.0849 21.8532 18.1289 21.3571 18.0287 20.8656C17.7711 19.6017 16.6976 18.6952 15.4161 18.683C14.4232 18.6735 13.4303 18.6792 12.4373 18.6773C12.4261 18.6773 12.4148 18.6707 12.3671 18.6547C12.5319 18.1896 12.4748 17.7152 12.4748 17.2454C12.4748 17.0653 12.4898 16.9766 12.7108 16.9776C14.3342 16.9879 15.9585 16.9625 17.5819 16.9908C19.2577 17.0191 20.3171 18.133 20.3284 19.8233C20.334 20.6723 20.3228 21.5202 20.334 22.3692C20.3368 22.5757 20.3012 22.6559 20.0717 22.6474C19.5115 22.6276 18.9504 22.6286 18.3903 22.6474C18.1523 22.654 18.0746 22.6021 18.0783 22.3456ZM21.7972 24.8924C21.0637 24.8914 20.3284 24.9282 19.5977 24.8858C19.0188 24.8518 18.5814 24.5217 18.2919 24.0048C18.1954 23.8331 18.2029 23.7614 18.4268 23.7689C18.8577 23.7822 19.2886 23.7727 19.7195 23.7727C20.1382 23.7727 20.5579 23.7652 20.9766 23.7746C21.4824 23.7859 21.8993 24.1462 21.9967 24.6273C22.0323 24.8046 21.9892 24.8924 21.7972 24.8924ZM23.0908 24.4387C22.8988 23.6114 22.437 23.0228 21.6136 22.7719C21.4159 22.7116 21.4506 22.5776 21.4506 22.4418C21.4506 21.4995 21.4515 20.5572 21.4506 19.6149C21.4497 17.868 20.2825 16.3843 18.5898 15.9966C18.3781 15.9475 18.3013 15.8862 18.4099 15.6778C18.469 15.5636 18.5102 15.441 18.5617 15.3222C18.6797 15.0505 18.8024 14.7241 19.0366 14.5996C19.3186 14.4506 19.5041 14.8279 19.7354 14.9609C20.4108 15.3486 21.1171 15.64 21.8824 15.7693C22.066 15.8004 22.1269 15.8711 22.1672 16.0485C22.6637 18.2481 23.1732 20.444 23.6725 22.6427C23.8383 23.3728 23.5863 24.1312 23.0908 24.4387ZM26.0031 24.9084C25.4439 24.8971 24.8837 24.9037 24.2524 24.9037C24.9512 23.8972 24.9259 22.8691 24.658 21.7853C24.1737 19.8262 23.7362 17.8548 23.2744 15.8626C24.1943 15.8419 25.0645 15.6655 25.887 15.2778C26.1052 15.175 26.0809 15.3967 26.1174 15.4816C26.7656 16.9879 27.4045 18.499 28.0461 20.0092C28.2204 20.4185 28.3899 20.8307 28.5735 21.2363C28.6391 21.3816 28.6297 21.4863 28.5351 21.6193C27.7998 22.6503 27.071 23.6859 26.345 24.7235C26.257 24.848 26.1661 24.9112 26.0031 24.9084ZM30.5051 28.7965C28.7328 29.1124 27.0897 28.0749 26.6167 26.3572C26.5427 26.0884 26.5792 25.9837 26.8649 26.0346C26.8762 26.0365 26.8883 26.0356 26.8996 26.0346C27.3792 25.9856 27.7005 26.0554 27.9646 26.6034C28.5023 27.7164 29.9234 28.0456 30.9875 27.4259C32.0479 26.8081 32.4198 25.4385 31.8193 24.3556C31.2273 23.2879 29.8943 22.8936 28.8199 23.4681C28.7197 23.5218 28.6213 23.5812 28.4368 23.6869C28.8068 23.1615 29.1281 22.7163 29.4363 22.2626C29.5327 22.1211 29.6377 22.0702 29.8091 22.0692C31.572 22.0588 33.0521 23.4001 33.2141 25.1668C33.3724 26.8779 32.1603 28.5022 30.5051 28.7965ZM29.811 24.9056C29.5327 24.898 29.2536 24.9037 28.9707 24.9037C29.1065 24.5226 29.5505 24.2858 30.0058 24.3453C30.5154 24.4113 30.9322 24.8395 30.98 25.3479C31.0315 25.8913 30.7177 26.3733 30.2025 26.5412C29.706 26.7034 29.2227 26.5195 28.9389 26.0337C29.2442 26.0337 29.5299 26.0403 29.8147 26.0318C30.1735 26.0224 30.4095 25.8007 30.418 25.4828C30.4292 25.1508 30.1856 24.915 29.811 24.9056Z" fill="black"/>
</g>
<defs>
<clipPath id="clip0_3744_75282">
<rect width="34.2105" height="30" fill="white" transform="translate(0.144531)"/>
</clipPath>
</defs>
</svg>
