<svg width="13" height="12" viewBox="0 0 13 12" fill="none" xmlns="http://www.w3.org/2000/svg">
<path fill-rule="evenodd" clip-rule="evenodd" d="M2.39453 0C2.80874 0 3.14453 0.335786 3.14453 0.75V1.5H3.89453C4.30874 1.5 4.64453 1.83579 4.64453 2.25C4.64453 2.66421 4.30874 3 3.89453 3H3.14453V3.75C3.14453 4.16421 2.80874 4.5 2.39453 4.5C1.98032 4.5 1.64453 4.16421 1.64453 3.75V3H0.894531C0.480318 3 0.144531 2.66421 0.144531 2.25C0.144531 1.83579 0.480318 1.5 0.894531 1.5H1.64453V0.75C1.64453 0.335786 1.98032 0 2.39453 0ZM2.39453 7.5C2.80874 7.5 3.14453 7.83579 3.14453 8.25V9H3.89453C4.30874 9 4.64453 9.33579 4.64453 9.75C4.64453 10.1642 4.30874 10.5 3.89453 10.5H3.14453V11.25C3.14453 11.6642 2.80874 12 2.39453 12C1.98032 12 1.64453 11.6642 1.64453 11.25V10.5H0.894531C0.480318 10.5 0.144531 10.1642 0.144531 9.75C0.144531 9.33579 0.480318 9 0.894531 9H1.64453V8.25C1.64453 7.83579 1.98032 7.5 2.39453 7.5Z" fill="#00AC69"/>
<path fill-rule="evenodd" clip-rule="evenodd" d="M7.64449 0C7.98479 0 8.28244 0.229112 8.36952 0.558081L9.25393 3.8992L11.7693 5.35036C12.0015 5.4843 12.1445 5.73197 12.1445 6C12.1445 6.26803 12.0015 6.5157 11.7693 6.64964L9.25393 8.1008L8.36952 11.4419C8.28244 11.7709 7.98479 12 7.64449 12C7.30419 12 7.00654 11.7709 6.91946 11.4419L6.03505 8.1008L3.51974 6.64964C3.28757 6.51569 3.14453 6.26803 3.14453 6C3.14453 5.73197 3.28757 5.48431 3.51974 5.35036L6.03505 3.8992L6.91946 0.558081C7.00654 0.229112 7.30419 0 7.64449 0Z" fill="#00AC69"/>
</svg>
