<svg width="26" height="25" viewBox="0 0 26 25" fill="none" xmlns="http://www.w3.org/2000/svg">
<path d="M18.6439 17.3509C17.6544 18.3403 15.5699 20.4248 14.1648 21.83C13.3837 22.611 12.1183 22.6104 11.3372 21.8294C9.9564 20.4485 7.91351 18.4057 6.85875 17.3509C3.60438 14.0965 3.60438 8.82015 6.85875 5.56578C10.1131 2.31141 15.3895 2.31141 18.6439 5.56578C21.8982 8.82015 21.8982 14.0965 18.6439 17.3509Z" stroke="#00AC69" stroke-width="2" stroke-linecap="round" stroke-linejoin="round"/>
<path d="M15.8763 11.4583C15.8763 13.1842 14.4772 14.5833 12.7513 14.5833C11.0254 14.5833 9.6263 13.1842 9.6263 11.4583C9.6263 9.73244 11.0254 8.33333 12.7513 8.33333C14.4772 8.33333 15.8763 9.73244 15.8763 11.4583Z" stroke="#00AC69" stroke-width="2" stroke-linecap="round" stroke-linejoin="round"/>
</svg>
