<svg width="31" height="32" viewBox="0 0 31 32" fill="none" xmlns="http://www.w3.org/2000/svg">
<mask id="path-1-outside-1_3873_73597" maskUnits="userSpaceOnUse" x="0.253906" y="0" width="31" height="32" fill="black">
<rect fill="white" x="0.253906" width="31" height="32"/>
<path d="M29.6079 1C28.4298 1 27.2518 1 26.0737 1C25.5573 1 25.3878 1.14524 25.4121 1.66165C25.4282 1.95212 25.3152 1.97633 25.0732 1.97633C21.8537 1.96826 18.6342 1.97633 15.4147 1.96826C14.9064 1.96826 14.4465 2.08123 14.0027 2.32329C12.5342 3.13018 11.0576 3.92899 9.58903 4.74395C9.41152 4.84077 9.24207 4.88112 9.04842 4.88112C7.28941 4.87305 5.52233 4.87305 3.74718 4.87305C3.3034 4.87305 2.94837 5.05056 2.68209 5.39753C2.28672 5.90586 2.17376 6.48682 2.24638 7.10812C2.32706 7.77784 2.5772 8.37493 3.24691 8.64927C3.49705 8.75417 3.49705 8.84293 3.4325 9.05272C2.85154 10.9892 2.27865 12.9258 1.71383 14.8623C1.51211 15.5481 1.25391 16.2259 1.25391 16.9683C1.27004 21.4142 1.26198 25.8601 1.26198 30.3061C1.26198 30.8628 1.39915 31 1.9559 31C9.05649 31 16.1651 31 23.2657 31C23.8225 31 23.9677 30.8628 23.9677 30.3061C23.9677 25.844 23.9677 21.3739 23.9677 16.9118C23.9677 16.5648 23.9112 16.234 23.8144 15.9032C23.1608 13.6842 22.5153 11.4653 21.8618 9.24637C23.2657 9.08499 24.1614 8.36686 24.4277 6.93868C24.4438 6.84992 24.468 6.80958 24.5729 6.79344C25.3959 6.69661 25.4121 6.71275 25.4201 7.5277C25.4201 7.55998 25.4201 7.58419 25.4201 7.61646C25.4201 8.08445 25.5815 8.24583 26.0576 8.24583C27.2437 8.24583 28.4298 8.24583 29.6159 8.24583C30.0839 8.24583 30.2453 8.08445 30.2453 7.60839C30.2453 5.61538 30.2453 3.61431 30.2453 1.6213C30.2372 1.16138 30.0839 1 29.6079 1ZM3.36795 7.51157C3.14202 7.08392 3.14202 6.64013 3.31953 6.19634C3.41636 5.96235 3.5616 5.83324 3.84401 5.83324C8.30608 5.84131 12.7762 5.84131 17.2464 5.84131C17.2948 5.84131 17.3432 5.84131 17.4804 5.84131C16.8268 6.49489 16.2297 7.09199 15.6326 7.68908C15.5519 7.76977 15.4551 7.77784 15.3583 7.77784C11.5014 7.77784 7.65251 7.77784 3.7956 7.77784C3.58581 7.77784 3.4567 7.68101 3.36795 7.51157ZM18.1743 29.6928C18.1743 29.9591 18.1259 30.0479 17.8354 30.0479C12.744 30.0398 7.65251 30.0398 2.56106 30.0479C2.27865 30.0479 2.22217 29.9591 2.22217 29.6928C2.23024 25.4567 2.23024 21.2286 2.22217 16.9925C2.22217 16.3147 2.4723 15.7176 2.65789 15.0882C3.24691 13.0549 3.85208 11.0377 4.4411 9.0043C4.48952 8.83486 4.546 8.73803 4.75579 8.73803C7.99947 8.7461 11.2351 8.7461 14.4788 8.7461C14.5272 8.7461 14.5756 8.75417 14.6643 8.75417C14.3012 9.48037 14.277 10.1662 14.6482 10.844C15.2695 11.9817 16.7058 12.3125 17.7628 11.546C18.4728 11.0296 19.1506 10.4728 19.8445 9.94029C19.9172 9.88381 19.9898 9.8354 20.127 9.7305C20.0382 10.0452 19.9736 10.2873 19.901 10.5293C19.3685 12.3367 18.8359 14.1361 18.3034 15.9435C18.2146 16.2421 18.1743 16.5487 18.1743 16.8634C18.1662 21.1399 18.1662 25.4164 18.1743 29.6928ZM19.8123 30.0237C20.2319 29.6122 20.603 29.2491 20.9742 28.886C21.0549 28.8053 21.1114 28.8375 21.1759 28.9021C21.539 29.2571 21.9021 29.6202 22.3136 30.0237C21.4422 30.0237 20.6756 30.0237 19.8123 30.0237ZM22.8865 16.2017C22.9511 16.4115 22.9914 16.6294 22.9914 16.8553C22.9914 20.922 22.9914 24.9806 22.9914 29.0473C22.9914 29.128 22.9914 29.2006 22.9914 29.354C22.4911 28.8537 22.0473 28.4099 21.6036 27.9661C21.5067 27.8693 21.5471 27.7402 21.5471 27.6192C21.5471 24.3432 21.5471 21.0672 21.5471 17.7913C21.5471 17.7187 21.5471 17.6541 21.5471 17.5815C21.539 17.1942 21.3696 16.9844 21.0629 16.9844C20.7563 16.9844 20.5869 17.2023 20.5869 17.5896C20.5869 20.9301 20.5869 24.2625 20.5869 27.603C20.5869 27.8209 20.5304 27.9822 20.3771 28.1356C19.9736 28.5148 19.5944 28.9182 19.1345 29.3782C19.1345 29.1764 19.1345 29.0715 19.1345 28.9666C19.1345 25.0048 19.1426 21.043 19.1264 17.0812C19.1264 16.3792 19.3766 15.7579 19.5621 15.1205C20.0221 13.5067 20.5062 11.893 20.9823 10.2873C20.9984 10.2308 21.0226 10.1824 21.0468 10.1178C21.1678 10.1581 21.1517 10.2711 21.1759 10.3437C21.7407 12.2803 22.3136 14.241 22.8865 16.2017ZM25.4201 5.58311C25.4282 5.80097 25.3556 5.85745 25.1539 5.84131C24.8714 5.82517 24.589 5.83324 24.3066 5.84131C23.8144 5.84938 23.5159 6.13986 23.4836 6.61592C23.411 7.6326 22.7413 8.31038 21.7327 8.23776C20.7967 8.17321 20.0543 8.42335 19.3604 9.06079C18.7068 9.66595 17.9645 10.1743 17.2464 10.723C16.7542 11.0941 16.149 11.078 15.7294 10.6907C15.2211 10.2227 15.213 9.4965 15.7294 8.97203C16.7622 7.93115 17.8031 6.89026 18.844 5.84938C18.9166 5.77676 18.9892 5.71221 19.0457 5.62345C19.2555 5.31684 19.078 4.92146 18.7068 4.87305C18.6181 4.85691 18.5293 4.86498 18.4325 4.86498C16.2055 4.86498 13.9866 4.86498 11.7596 4.86498C11.6627 4.86498 11.5659 4.86498 11.4691 4.86498C11.461 4.84884 11.461 4.83271 11.4529 4.81657C12.2275 4.38892 13.0264 3.99354 13.7848 3.52555C14.5352 3.06563 15.3099 2.90425 16.1894 2.91232C19.1668 2.95266 22.1442 2.92846 25.1216 2.92039C25.3636 2.92039 25.4201 2.98494 25.4121 3.21893C25.404 4.00968 25.404 4.80043 25.4201 5.58311ZM29.0027 7.29371C28.22 7.27757 27.4373 7.28564 26.6466 7.29371C26.4449 7.29371 26.3642 7.25336 26.3722 7.02743C26.3803 5.4298 26.3803 3.8241 26.3722 2.22647C26.3722 2.04088 26.4126 1.96019 26.6224 1.96019C27.4293 1.96826 28.2281 1.96826 29.035 1.96019C29.2448 1.96019 29.2851 2.04088 29.2851 2.22647C29.277 3.03335 29.2851 3.84024 29.2851 4.64712C29.2851 5.4298 29.277 6.22055 29.2932 7.00323C29.2851 7.21302 29.2448 7.30178 29.0027 7.29371Z"/>
</mask>
<path d="M29.6079 1C28.4298 1 27.2518 1 26.0737 1C25.5573 1 25.3878 1.14524 25.4121 1.66165C25.4282 1.95212 25.3152 1.97633 25.0732 1.97633C21.8537 1.96826 18.6342 1.97633 15.4147 1.96826C14.9064 1.96826 14.4465 2.08123 14.0027 2.32329C12.5342 3.13018 11.0576 3.92899 9.58903 4.74395C9.41152 4.84077 9.24207 4.88112 9.04842 4.88112C7.28941 4.87305 5.52233 4.87305 3.74718 4.87305C3.3034 4.87305 2.94837 5.05056 2.68209 5.39753C2.28672 5.90586 2.17376 6.48682 2.24638 7.10812C2.32706 7.77784 2.5772 8.37493 3.24691 8.64927C3.49705 8.75417 3.49705 8.84293 3.4325 9.05272C2.85154 10.9892 2.27865 12.9258 1.71383 14.8623C1.51211 15.5481 1.25391 16.2259 1.25391 16.9683C1.27004 21.4142 1.26198 25.8601 1.26198 30.3061C1.26198 30.8628 1.39915 31 1.9559 31C9.05649 31 16.1651 31 23.2657 31C23.8225 31 23.9677 30.8628 23.9677 30.3061C23.9677 25.844 23.9677 21.3739 23.9677 16.9118C23.9677 16.5648 23.9112 16.234 23.8144 15.9032C23.1608 13.6842 22.5153 11.4653 21.8618 9.24637C23.2657 9.08499 24.1614 8.36686 24.4277 6.93868C24.4438 6.84992 24.468 6.80958 24.5729 6.79344C25.3959 6.69661 25.4121 6.71275 25.4201 7.5277C25.4201 7.55998 25.4201 7.58419 25.4201 7.61646C25.4201 8.08445 25.5815 8.24583 26.0576 8.24583C27.2437 8.24583 28.4298 8.24583 29.6159 8.24583C30.0839 8.24583 30.2453 8.08445 30.2453 7.60839C30.2453 5.61538 30.2453 3.61431 30.2453 1.6213C30.2372 1.16138 30.0839 1 29.6079 1ZM3.36795 7.51157C3.14202 7.08392 3.14202 6.64013 3.31953 6.19634C3.41636 5.96235 3.5616 5.83324 3.84401 5.83324C8.30608 5.84131 12.7762 5.84131 17.2464 5.84131C17.2948 5.84131 17.3432 5.84131 17.4804 5.84131C16.8268 6.49489 16.2297 7.09199 15.6326 7.68908C15.5519 7.76977 15.4551 7.77784 15.3583 7.77784C11.5014 7.77784 7.65251 7.77784 3.7956 7.77784C3.58581 7.77784 3.4567 7.68101 3.36795 7.51157ZM18.1743 29.6928C18.1743 29.9591 18.1259 30.0479 17.8354 30.0479C12.744 30.0398 7.65251 30.0398 2.56106 30.0479C2.27865 30.0479 2.22217 29.9591 2.22217 29.6928C2.23024 25.4567 2.23024 21.2286 2.22217 16.9925C2.22217 16.3147 2.4723 15.7176 2.65789 15.0882C3.24691 13.0549 3.85208 11.0377 4.4411 9.0043C4.48952 8.83486 4.546 8.73803 4.75579 8.73803C7.99947 8.7461 11.2351 8.7461 14.4788 8.7461C14.5272 8.7461 14.5756 8.75417 14.6643 8.75417C14.3012 9.48037 14.277 10.1662 14.6482 10.844C15.2695 11.9817 16.7058 12.3125 17.7628 11.546C18.4728 11.0296 19.1506 10.4728 19.8445 9.94029C19.9172 9.88381 19.9898 9.8354 20.127 9.7305C20.0382 10.0452 19.9736 10.2873 19.901 10.5293C19.3685 12.3367 18.8359 14.1361 18.3034 15.9435C18.2146 16.2421 18.1743 16.5487 18.1743 16.8634C18.1662 21.1399 18.1662 25.4164 18.1743 29.6928ZM19.8123 30.0237C20.2319 29.6122 20.603 29.2491 20.9742 28.886C21.0549 28.8053 21.1114 28.8375 21.1759 28.9021C21.539 29.2571 21.9021 29.6202 22.3136 30.0237C21.4422 30.0237 20.6756 30.0237 19.8123 30.0237ZM22.8865 16.2017C22.9511 16.4115 22.9914 16.6294 22.9914 16.8553C22.9914 20.922 22.9914 24.9806 22.9914 29.0473C22.9914 29.128 22.9914 29.2006 22.9914 29.354C22.4911 28.8537 22.0473 28.4099 21.6036 27.9661C21.5067 27.8693 21.5471 27.7402 21.5471 27.6192C21.5471 24.3432 21.5471 21.0672 21.5471 17.7913C21.5471 17.7187 21.5471 17.6541 21.5471 17.5815C21.539 17.1942 21.3696 16.9844 21.0629 16.9844C20.7563 16.9844 20.5869 17.2023 20.5869 17.5896C20.5869 20.9301 20.5869 24.2625 20.5869 27.603C20.5869 27.8209 20.5304 27.9822 20.3771 28.1356C19.9736 28.5148 19.5944 28.9182 19.1345 29.3782C19.1345 29.1764 19.1345 29.0715 19.1345 28.9666C19.1345 25.0048 19.1426 21.043 19.1264 17.0812C19.1264 16.3792 19.3766 15.7579 19.5621 15.1205C20.0221 13.5067 20.5062 11.893 20.9823 10.2873C20.9984 10.2308 21.0226 10.1824 21.0468 10.1178C21.1678 10.1581 21.1517 10.2711 21.1759 10.3437C21.7407 12.2803 22.3136 14.241 22.8865 16.2017ZM25.4201 5.58311C25.4282 5.80097 25.3556 5.85745 25.1539 5.84131C24.8714 5.82517 24.589 5.83324 24.3066 5.84131C23.8144 5.84938 23.5159 6.13986 23.4836 6.61592C23.411 7.6326 22.7413 8.31038 21.7327 8.23776C20.7967 8.17321 20.0543 8.42335 19.3604 9.06079C18.7068 9.66595 17.9645 10.1743 17.2464 10.723C16.7542 11.0941 16.149 11.078 15.7294 10.6907C15.2211 10.2227 15.213 9.4965 15.7294 8.97203C16.7622 7.93115 17.8031 6.89026 18.844 5.84938C18.9166 5.77676 18.9892 5.71221 19.0457 5.62345C19.2555 5.31684 19.078 4.92146 18.7068 4.87305C18.6181 4.85691 18.5293 4.86498 18.4325 4.86498C16.2055 4.86498 13.9866 4.86498 11.7596 4.86498C11.6627 4.86498 11.5659 4.86498 11.4691 4.86498C11.461 4.84884 11.461 4.83271 11.4529 4.81657C12.2275 4.38892 13.0264 3.99354 13.7848 3.52555C14.5352 3.06563 15.3099 2.90425 16.1894 2.91232C19.1668 2.95266 22.1442 2.92846 25.1216 2.92039C25.3636 2.92039 25.4201 2.98494 25.4121 3.21893C25.404 4.00968 25.404 4.80043 25.4201 5.58311ZM29.0027 7.29371C28.22 7.27757 27.4373 7.28564 26.6466 7.29371C26.4449 7.29371 26.3642 7.25336 26.3722 7.02743C26.3803 5.4298 26.3803 3.8241 26.3722 2.22647C26.3722 2.04088 26.4126 1.96019 26.6224 1.96019C27.4293 1.96826 28.2281 1.96826 29.035 1.96019C29.2448 1.96019 29.2851 2.04088 29.2851 2.22647C29.277 3.03335 29.2851 3.84024 29.2851 4.64712C29.2851 5.4298 29.277 6.22055 29.2932 7.00323C29.2851 7.21302 29.2448 7.30178 29.0027 7.29371Z" fill="white"/>
<path d="M29.6079 1C28.4298 1 27.2518 1 26.0737 1C25.5573 1 25.3878 1.14524 25.4121 1.66165C25.4282 1.95212 25.3152 1.97633 25.0732 1.97633C21.8537 1.96826 18.6342 1.97633 15.4147 1.96826C14.9064 1.96826 14.4465 2.08123 14.0027 2.32329C12.5342 3.13018 11.0576 3.92899 9.58903 4.74395C9.41152 4.84077 9.24207 4.88112 9.04842 4.88112C7.28941 4.87305 5.52233 4.87305 3.74718 4.87305C3.3034 4.87305 2.94837 5.05056 2.68209 5.39753C2.28672 5.90586 2.17376 6.48682 2.24638 7.10812C2.32706 7.77784 2.5772 8.37493 3.24691 8.64927C3.49705 8.75417 3.49705 8.84293 3.4325 9.05272C2.85154 10.9892 2.27865 12.9258 1.71383 14.8623C1.51211 15.5481 1.25391 16.2259 1.25391 16.9683C1.27004 21.4142 1.26198 25.8601 1.26198 30.3061C1.26198 30.8628 1.39915 31 1.9559 31C9.05649 31 16.1651 31 23.2657 31C23.8225 31 23.9677 30.8628 23.9677 30.3061C23.9677 25.844 23.9677 21.3739 23.9677 16.9118C23.9677 16.5648 23.9112 16.234 23.8144 15.9032C23.1608 13.6842 22.5153 11.4653 21.8618 9.24637C23.2657 9.08499 24.1614 8.36686 24.4277 6.93868C24.4438 6.84992 24.468 6.80958 24.5729 6.79344C25.3959 6.69661 25.4121 6.71275 25.4201 7.5277C25.4201 7.55998 25.4201 7.58419 25.4201 7.61646C25.4201 8.08445 25.5815 8.24583 26.0576 8.24583C27.2437 8.24583 28.4298 8.24583 29.6159 8.24583C30.0839 8.24583 30.2453 8.08445 30.2453 7.60839C30.2453 5.61538 30.2453 3.61431 30.2453 1.6213C30.2372 1.16138 30.0839 1 29.6079 1ZM3.36795 7.51157C3.14202 7.08392 3.14202 6.64013 3.31953 6.19634C3.41636 5.96235 3.5616 5.83324 3.84401 5.83324C8.30608 5.84131 12.7762 5.84131 17.2464 5.84131C17.2948 5.84131 17.3432 5.84131 17.4804 5.84131C16.8268 6.49489 16.2297 7.09199 15.6326 7.68908C15.5519 7.76977 15.4551 7.77784 15.3583 7.77784C11.5014 7.77784 7.65251 7.77784 3.7956 7.77784C3.58581 7.77784 3.4567 7.68101 3.36795 7.51157ZM18.1743 29.6928C18.1743 29.9591 18.1259 30.0479 17.8354 30.0479C12.744 30.0398 7.65251 30.0398 2.56106 30.0479C2.27865 30.0479 2.22217 29.9591 2.22217 29.6928C2.23024 25.4567 2.23024 21.2286 2.22217 16.9925C2.22217 16.3147 2.4723 15.7176 2.65789 15.0882C3.24691 13.0549 3.85208 11.0377 4.4411 9.0043C4.48952 8.83486 4.546 8.73803 4.75579 8.73803C7.99947 8.7461 11.2351 8.7461 14.4788 8.7461C14.5272 8.7461 14.5756 8.75417 14.6643 8.75417C14.3012 9.48037 14.277 10.1662 14.6482 10.844C15.2695 11.9817 16.7058 12.3125 17.7628 11.546C18.4728 11.0296 19.1506 10.4728 19.8445 9.94029C19.9172 9.88381 19.9898 9.8354 20.127 9.7305C20.0382 10.0452 19.9736 10.2873 19.901 10.5293C19.3685 12.3367 18.8359 14.1361 18.3034 15.9435C18.2146 16.2421 18.1743 16.5487 18.1743 16.8634C18.1662 21.1399 18.1662 25.4164 18.1743 29.6928ZM19.8123 30.0237C20.2319 29.6122 20.603 29.2491 20.9742 28.886C21.0549 28.8053 21.1114 28.8375 21.1759 28.9021C21.539 29.2571 21.9021 29.6202 22.3136 30.0237C21.4422 30.0237 20.6756 30.0237 19.8123 30.0237ZM22.8865 16.2017C22.9511 16.4115 22.9914 16.6294 22.9914 16.8553C22.9914 20.922 22.9914 24.9806 22.9914 29.0473C22.9914 29.128 22.9914 29.2006 22.9914 29.354C22.4911 28.8537 22.0473 28.4099 21.6036 27.9661C21.5067 27.8693 21.5471 27.7402 21.5471 27.6192C21.5471 24.3432 21.5471 21.0672 21.5471 17.7913C21.5471 17.7187 21.5471 17.6541 21.5471 17.5815C21.539 17.1942 21.3696 16.9844 21.0629 16.9844C20.7563 16.9844 20.5869 17.2023 20.5869 17.5896C20.5869 20.9301 20.5869 24.2625 20.5869 27.603C20.5869 27.8209 20.5304 27.9822 20.3771 28.1356C19.9736 28.5148 19.5944 28.9182 19.1345 29.3782C19.1345 29.1764 19.1345 29.0715 19.1345 28.9666C19.1345 25.0048 19.1426 21.043 19.1264 17.0812C19.1264 16.3792 19.3766 15.7579 19.5621 15.1205C20.0221 13.5067 20.5062 11.893 20.9823 10.2873C20.9984 10.2308 21.0226 10.1824 21.0468 10.1178C21.1678 10.1581 21.1517 10.2711 21.1759 10.3437C21.7407 12.2803 22.3136 14.241 22.8865 16.2017ZM25.4201 5.58311C25.4282 5.80097 25.3556 5.85745 25.1539 5.84131C24.8714 5.82517 24.589 5.83324 24.3066 5.84131C23.8144 5.84938 23.5159 6.13986 23.4836 6.61592C23.411 7.6326 22.7413 8.31038 21.7327 8.23776C20.7967 8.17321 20.0543 8.42335 19.3604 9.06079C18.7068 9.66595 17.9645 10.1743 17.2464 10.723C16.7542 11.0941 16.149 11.078 15.7294 10.6907C15.2211 10.2227 15.213 9.4965 15.7294 8.97203C16.7622 7.93115 17.8031 6.89026 18.844 5.84938C18.9166 5.77676 18.9892 5.71221 19.0457 5.62345C19.2555 5.31684 19.078 4.92146 18.7068 4.87305C18.6181 4.85691 18.5293 4.86498 18.4325 4.86498C16.2055 4.86498 13.9866 4.86498 11.7596 4.86498C11.6627 4.86498 11.5659 4.86498 11.4691 4.86498C11.461 4.84884 11.461 4.83271 11.4529 4.81657C12.2275 4.38892 13.0264 3.99354 13.7848 3.52555C14.5352 3.06563 15.3099 2.90425 16.1894 2.91232C19.1668 2.95266 22.1442 2.92846 25.1216 2.92039C25.3636 2.92039 25.4201 2.98494 25.4121 3.21893C25.404 4.00968 25.404 4.80043 25.4201 5.58311ZM29.0027 7.29371C28.22 7.27757 27.4373 7.28564 26.6466 7.29371C26.4449 7.29371 26.3642 7.25336 26.3722 7.02743C26.3803 5.4298 26.3803 3.8241 26.3722 2.22647C26.3722 2.04088 26.4126 1.96019 26.6224 1.96019C27.4293 1.96826 28.2281 1.96826 29.035 1.96019C29.2448 1.96019 29.2851 2.04088 29.2851 2.22647C29.277 3.03335 29.2851 3.84024 29.2851 4.64712C29.2851 5.4298 29.277 6.22055 29.2932 7.00323C29.2851 7.21302 29.2448 7.30178 29.0027 7.29371Z" stroke="white" stroke-width="0.6" mask="url(#path-1-outside-1_3873_73597)"/>
</svg>
