<svg width="25" height="24" viewBox="0 0 25 24" fill="none" xmlns="http://www.w3.org/2000/svg">
<path d="M3.51172 11.2207V15.7107C3.51172 20.2007 5.31172 22.0007 9.80172 22.0007H15.1917C19.6817 22.0007 21.4817 20.2007 21.4817 15.7107V11.2207" stroke="#292D32" stroke-width="1.5" stroke-linecap="round" stroke-linejoin="round"/>
<path d="M12.5005 12C14.3305 12 15.6805 10.51 15.5005 8.68L14.8405 2H10.1705L9.50048 8.68C9.32048 10.51 10.6705 12 12.5005 12Z" stroke="#292D32" stroke-width="1.5" stroke-linecap="round" stroke-linejoin="round"/>
<path d="M18.8108 12C20.8308 12 22.3108 10.36 22.1108 8.35L21.8308 5.6C21.4708 3 20.4708 2 17.8508 2H14.8008L15.5008 9.01C15.6708 10.66 17.1608 12 18.8108 12Z" stroke="#292D32" stroke-width="1.5" stroke-linecap="round" stroke-linejoin="round"/>
<path d="M6.13842 12C7.78842 12 9.27842 10.66 9.43842 9.01L9.65842 6.8L10.1384 2H7.08842C4.46842 2 3.46842 3 3.10842 5.6L2.83842 8.35C2.63842 10.36 4.11842 12 6.13842 12Z" stroke="#292D32" stroke-width="1.5" stroke-linecap="round" stroke-linejoin="round"/>
<path d="M12.5 17C10.83 17 10 17.83 10 19.5V22H15V19.5C15 17.83 14.17 17 12.5 17Z" stroke="#292D32" stroke-width="1.5" stroke-linecap="round" stroke-linejoin="round"/>
</svg>
