<svg width="24" height="24" viewBox="0 0 24 24" fill="none" xmlns="http://www.w3.org/2000/svg">
<path d="M12.6507 0.0307627C10.0488 -0.156964 7.6244 0.517196 5.46318 1.97913C2.22191 4.17165 0.422217 7.24186 0.127042 11.1424C-0.0482533 13.4568 0.466323 15.6425 1.59123 17.6815C1.64401 17.7775 1.65569 17.9219 1.62968 18.0303C1.52714 18.4588 1.40199 18.882 1.2855 19.3075C0.861397 20.8552 0.437296 22.4033 0 23.9999C0.122518 23.9717 0.202061 23.9555 0.280472 23.9352C2.22418 23.4277 4.16713 22.9176 6.11272 22.4172C6.22807 22.3875 6.38226 22.3973 6.48668 22.4507C8.76967 23.6169 11.1812 24.0518 13.719 23.6737C16.9987 23.1854 19.6772 21.6189 21.6043 18.9351C24.2869 15.1986 24.7498 11.1156 22.8261 6.95068C20.8541 2.68113 17.3633 0.370852 12.6507 0.0307627ZM13.9739 21.5933C11.4673 22.1057 9.09538 21.6738 6.89382 20.365C6.68987 20.2439 6.51194 20.2191 6.28688 20.28C5.19289 20.5768 4.09512 20.8597 2.99849 21.1472C2.96758 21.1554 2.93554 21.1592 2.86127 21.1731C3.17039 20.0471 3.46218 18.955 3.77469 17.8685C3.84293 17.6311 3.81616 17.4532 3.68309 17.2459C2.53217 15.451 1.99686 13.4808 2.12842 11.3564C2.30711 8.47167 3.52702 6.08578 5.76175 4.2484C7.71752 2.64012 9.99145 1.91705 12.5202 2.02352C17.093 2.21614 21.0019 5.67308 21.7721 10.1887C22.6791 15.5075 19.2761 20.5095 13.9739 21.5933Z" fill="white"/>
<path d="M17.8623 14.6128C17.0292 14.1937 16.1852 13.7965 15.34 13.4018C15.0972 13.2886 14.9008 13.357 14.7323 13.5809C14.442 13.9669 14.1269 14.3344 13.8234 14.7106C13.6651 14.907 13.4743 14.942 13.2432 14.8506C11.4646 14.1444 10.1011 12.9594 9.12849 11.3176C8.99843 11.0983 9.02331 10.9222 9.18202 10.7277C9.4346 10.4181 9.6672 10.0923 9.9062 9.77181C10.0547 9.57242 10.0577 9.36626 9.95935 9.13715C9.6672 8.4566 9.37353 7.77642 9.10776 7.08571C8.92605 6.61395 8.68064 6.28514 8.1393 6.42509C7.70917 6.36603 7.34576 6.43713 7.0453 6.7302C6.09419 7.65942 5.77526 8.77562 6.0629 10.0641C6.26496 10.9681 6.74485 11.7356 7.27639 12.4794C8.96714 14.8453 11.0779 16.6421 13.941 17.4385C14.7323 17.6586 15.5285 17.7376 16.2971 17.4163C17.6558 16.8482 18.0275 16.2392 18.0489 14.9777C18.0516 14.854 17.9634 14.6636 17.8623 14.6128Z" fill="white"/>
</svg>
